<?xml version="1.0" encoding="UTF-8" standalone="no"?>
<!-- Created with Inkscape (http://www.inkscape.org/) -->

<svg
   width="210mm"
   height="297mm"
   viewBox="0 0 210 297"
   version="1.1"
   id="svg1"
   inkscape:version="1.3 (0e150ed6c4, 2023-07-21)"
   sodipodi:docname="20231129ADSBraiding.svg"
   xmlns:inkscape="http://www.inkscape.org/namespaces/inkscape"
   xmlns:sodipodi="http://sodipodi.sourceforge.net/DTD/sodipodi-0.dtd"
   xmlns="http://www.w3.org/2000/svg"
   xmlns:svg="http://www.w3.org/2000/svg">
  <sodipodi:namedview
     id="namedview1"
     pagecolor="#ffffff"
     bordercolor="#000000"
     borderopacity="0.25"
     inkscape:showpageshadow="2"
     inkscape:pageopacity="0.0"
     inkscape:pagecheckerboard="0"
     inkscape:deskcolor="#d1d1d1"
     inkscape:document-units="mm"
     inkscape:zoom="2.6333614"
     inkscape:cx="352.78105"
     inkscape:cy="527.84248"
     inkscape:window-width="1920"
     inkscape:window-height="974"
     inkscape:window-x="-11"
     inkscape:window-y="-11"
     inkscape:window-maximized="1"
     inkscape:current-layer="layer1" />
  <defs
     id="defs1" />
  <g
     inkscape:label="Layer 1"
     inkscape:groupmode="layer"
     id="layer1">
    <path
       sodipodi:type="star"
       style="fill:none;stroke:#000000;stroke-width:0.1"
       id="path1"
       inkscape:flatsided="true"
       sodipodi:sides="6"
       sodipodi:cx="39.385658"
       sodipodi:cy="83.192154"
       sodipodi:r1="53.20208"
       sodipodi:r2="46.074356"
       sodipodi:arg1="1.0471976"
       sodipodi:arg2="1.5707963"
       inkscape:rounded="0"
       inkscape:randomized="0"
       d="m 65.986696,129.26651 -53.20208,0 -26.601038,-46.074359 26.601043,-46.074351 53.202079,3e-6 26.601038,46.074354 z"
       transform="matrix(0.32537655,0,0,0.32537655,35.896394,24.441848)" />
    <circle
       style="fill:#0000ff;stroke:#000000;stroke-width:0.0325377"
       id="path2"
       cx="40.05621"
       cy="36.519112"
       r="1.1115198" />
    <circle
       style="fill:#0000ff;stroke:#000000;stroke-width:0.0325377"
       id="path2-3"
       cx="66.02227"
       cy="51.510624"
       r="1.1115198" />
    <circle
       style="fill:none;stroke:#0000ff;stroke-width:0.292839;stroke-dasharray:none;stroke-opacity:1"
       id="path2-3-6"
       cx="31.400854"
       cy="51.510624"
       r="1.1115198" />
    <circle
       style="fill:none;stroke:#0000ff;stroke-width:0.292839;stroke-dasharray:none;stroke-opacity:1"
       id="path2-3-6-2"
       cx="57.36692"
       cy="36.519112"
       r="1.1115198" />
    <circle
       style="fill:none;stroke:#0000ff;stroke-width:0.292839;stroke-dasharray:none;stroke-opacity:1"
       id="path2-3-6-7"
       cx="57.366917"
       cy="66.502144"
       r="1.1115198" />
    <circle
       style="fill:#0000ff;stroke:#000000;stroke-width:0.0325377"
       id="path2-1"
       cx="40.05621"
       cy="66.502136"
       r="1.1115198" />
    <path
       sodipodi:type="star"
       style="fill:#ff0000;stroke:#ff0000;stroke-width:0.899999;stroke-dasharray:none;stroke-opacity:1"
       id="path3"
       inkscape:flatsided="true"
       sodipodi:sides="3"
       sodipodi:cx="77.865952"
       sodipodi:cy="190.9705"
       sodipodi:r1="5.0836072"
       sodipodi:r2="2.5418036"
       sodipodi:arg1="0.52359878"
       sodipodi:arg2="1.5707963"
       inkscape:rounded="0"
       inkscape:randomized="0"
       d="m 82.268485,193.51231 -8.805066,0 4.402533,-7.62541 z"
       inkscape:transform-center-y="-0.41352284"
       transform="matrix(0.32537655,0,0,0.32537655,27.91735,-6.171054)" />
    <path
       sodipodi:type="star"
       style="fill:#ff0000;stroke:#ff0000;stroke-width:0.899999;stroke-dasharray:none;stroke-opacity:1"
       id="path3-8"
       inkscape:flatsided="true"
       sodipodi:sides="3"
       sodipodi:cx="77.865952"
       sodipodi:cy="190.9705"
       sodipodi:r1="5.0836072"
       sodipodi:r2="2.5418036"
       sodipodi:arg1="0.52359878"
       sodipodi:arg2="1.5707963"
       inkscape:rounded="0"
       inkscape:randomized="0"
       d="m 82.268485,193.51231 -8.805066,0 4.402533,-7.62541 z"
       inkscape:transform-center-y="-0.41352276"
       transform="matrix(0.32537655,0,0,0.32537655,21.943328,-11.453743)" />
    <path
       sodipodi:type="star"
       style="fill:none;stroke:#000000;stroke-width:0.1"
       id="path1-9"
       inkscape:flatsided="true"
       sodipodi:sides="6"
       sodipodi:cx="39.385658"
       sodipodi:cy="83.192154"
       sodipodi:r1="53.20208"
       sodipodi:r2="46.074356"
       sodipodi:arg1="1.0471976"
       sodipodi:arg2="1.5707963"
       inkscape:rounded="0"
       inkscape:randomized="0"
       d="m 65.986696,129.26651 -53.20208,0 -26.601038,-46.074359 26.601043,-46.074351 53.202079,3e-6 26.601038,46.074354 z"
       transform="matrix(0.32537655,0,0,0.32537655,93.595145,65.116093)" />
    <circle
       style="fill:#0000ff;stroke:#000000;stroke-width:0.0325377"
       id="path2-6"
       cx="103.57578"
       cy="77.193359"
       r="1.1115198" />
    <circle
       style="fill:none;stroke:#0000ff;stroke-width:0.292839;stroke-dasharray:none;stroke-opacity:1"
       id="path2-3-6-2-3"
       cx="110.30317"
       cy="77.193359"
       r="1.1115198" />
    <circle
       style="fill:none;stroke:#0000ff;stroke-width:0.292839;stroke-dasharray:none;stroke-opacity:1"
       id="path2-3-6-7-9"
       cx="110.30317"
       cy="107.17639"
       r="1.1115198" />
    <circle
       style="fill:#0000ff;stroke:#000000;stroke-width:0.0325377"
       id="path2-1-1"
       cx="103.04661"
       cy="107.17638"
       r="1.1115198" />
    <path
       sodipodi:type="star"
       style="fill:#ff0000;stroke:#ff0000;stroke-width:0.899999;stroke-dasharray:none;stroke-opacity:1"
       id="path3-7"
       inkscape:flatsided="true"
       sodipodi:sides="3"
       sodipodi:cx="77.865952"
       sodipodi:cy="190.9705"
       sodipodi:r1="5.0836072"
       sodipodi:r2="2.5418036"
       sodipodi:arg1="0.52359878"
       sodipodi:arg2="1.5707963"
       inkscape:rounded="0"
       inkscape:randomized="0"
       d="m 82.268485,193.51231 -8.805066,0 4.402533,-7.62541 z"
       inkscape:transform-center-y="-0.41352284"
       transform="matrix(0.32537655,0,0,0.32537655,88.027468,34.20177)" />
    <path
       sodipodi:type="star"
       style="fill:none;stroke:#ff0000;stroke-width:0.90049513;stroke-dasharray:none;stroke-opacity:1"
       id="path3-8-3"
       inkscape:flatsided="true"
       sodipodi:sides="3"
       sodipodi:cx="77.865952"
       sodipodi:cy="190.9705"
       sodipodi:r1="5.0836072"
       sodipodi:r2="2.5418036"
       sodipodi:arg1="0.52359878"
       sodipodi:arg2="1.5707963"
       inkscape:rounded="0"
       inkscape:randomized="0"
       d="m 82.268485,193.51231 -8.805066,0 4.402533,-7.62541 z"
       inkscape:transform-center-y="-0.41352276"
       transform="matrix(0.32537655,0,0,0.32537655,71.101822,27.110556)" />
    <path
       sodipodi:type="star"
       style="fill:#00ff00;stroke:#00ff00;stroke-width:0.293;stroke-dasharray:none;stroke-opacity:1"
       id="path4"
       inkscape:flatsided="true"
       sodipodi:sides="4"
       sodipodi:cx="83.995941"
       sodipodi:cy="88.718193"
       sodipodi:r1="1.7050937"
       sodipodi:r2="1.2056834"
       sodipodi:arg1="0.78539816"
       sodipodi:arg2="1.5707963"
       inkscape:rounded="0"
       inkscape:randomized="0"
       d="m 85.201625,89.923876 -2.411367,0 0,-2.411366 2.411367,0 z"
       inkscape:transform-center-x="1.0582166e-06"
       inkscape:transform-center-y="-1.1177096e-06"
       transform="translate(24.616035,-0.60284168)" />
    <path
       sodipodi:type="star"
       style="fill:none;stroke:#00ff00;stroke-width:0.293;stroke-dasharray:none;stroke-opacity:1"
       id="path4-6"
       inkscape:flatsided="true"
       sodipodi:sides="4"
       sodipodi:cx="83.995941"
       sodipodi:cy="88.718193"
       sodipodi:r1="1.7050937"
       sodipodi:r2="1.2056834"
       sodipodi:arg1="0.78539816"
       sodipodi:arg2="1.5707963"
       inkscape:rounded="0"
       inkscape:randomized="0"
       d="m 85.201625,89.923876 -2.411367,0 0,-2.411366 2.411367,0 z"
       inkscape:transform-center-x="1.0582166e-06"
       inkscape:transform-center-y="-1.1177096e-06"
       transform="translate(20.000965,7.7097583)" />
    <path
       sodipodi:type="star"
       style="fill:none;stroke:#000000;stroke-width:0.1"
       id="path1-9-8"
       inkscape:flatsided="true"
       sodipodi:sides="6"
       sodipodi:cx="39.385658"
       sodipodi:cy="83.192154"
       sodipodi:r1="53.20208"
       sodipodi:r2="46.074356"
       sodipodi:arg1="1.0471976"
       sodipodi:arg2="1.5707963"
       inkscape:rounded="0"
       inkscape:randomized="0"
       d="m 65.986696,129.26651 -53.20208,0 -26.601038,-46.074359 26.601043,-46.074351 53.202079,3e-6 26.601038,46.074354 z"
       transform="matrix(0.32537655,0,0,0.32537655,102.92605,116.63923)" />
    <path
       sodipodi:type="star"
       style="fill:#ff0000;stroke:#ff0000;stroke-width:0.899999;stroke-dasharray:none;stroke-opacity:1"
       id="path3-7-3"
       inkscape:flatsided="true"
       sodipodi:sides="3"
       sodipodi:cx="77.865952"
       sodipodi:cy="190.9705"
       sodipodi:r1="5.0836072"
       sodipodi:r2="2.5418036"
       sodipodi:arg1="0.52359878"
       sodipodi:arg2="1.5707963"
       inkscape:rounded="0"
       inkscape:randomized="0"
       d="m 82.268485,193.51231 -8.805066,0 4.402533,-7.62541 z"
       inkscape:transform-center-y="-0.41352284"
       transform="matrix(0.32537655,0,0,0.32537655,100.674,87.432955)" />
    <path
       sodipodi:type="star"
       style="fill:none;stroke:#ff0000;stroke-width:0.900495;stroke-dasharray:none;stroke-opacity:1"
       id="path3-8-3-6"
       inkscape:flatsided="true"
       sodipodi:sides="3"
       sodipodi:cx="77.865952"
       sodipodi:cy="190.9705"
       sodipodi:r1="5.0836072"
       sodipodi:r2="2.5418036"
       sodipodi:arg1="0.52359878"
       sodipodi:arg2="1.5707963"
       inkscape:rounded="0"
       inkscape:randomized="0"
       d="m 82.268485,193.51231 -8.805066,0 4.402533,-7.62541 z"
       inkscape:transform-center-y="-0.41352276"
       transform="matrix(0.32537655,0,0,0.32537655,78.423256,77.428007)" />
    <path
       sodipodi:type="star"
       style="fill:#00ff00;stroke:#00ff00;stroke-width:0.293;stroke-dasharray:none;stroke-opacity:1"
       id="path4-7"
       inkscape:flatsided="true"
       sodipodi:sides="4"
       sodipodi:cx="83.995941"
       sodipodi:cy="88.718193"
       sodipodi:r1="1.7050937"
       sodipodi:r2="1.2056834"
       sodipodi:arg1="0.78539816"
       sodipodi:arg2="1.5707963"
       inkscape:rounded="0"
       inkscape:randomized="0"
       d="m 85.201625,89.923876 -2.411367,0 0,-2.411366 2.411367,0 z"
       inkscape:transform-center-x="1.0582166e-06"
       inkscape:transform-center-y="-1.1177096e-06"
       transform="translate(41.281515,48.006557)" />
    <path
       sodipodi:type="star"
       style="fill:none;stroke:#00ff00;stroke-width:0.293;stroke-dasharray:none;stroke-opacity:1"
       id="path4-6-5"
       inkscape:flatsided="true"
       sodipodi:sides="4"
       sodipodi:cx="83.995941"
       sodipodi:cy="88.718193"
       sodipodi:r1="1.7050937"
       sodipodi:r2="1.2056834"
       sodipodi:arg1="0.78539816"
       sodipodi:arg2="1.5707963"
       inkscape:rounded="0"
       inkscape:randomized="0"
       d="m 85.201625,89.923876 -2.411367,0 0,-2.411366 2.411367,0 z"
       inkscape:transform-center-x="1.0582166e-06"
       inkscape:transform-center-y="-1.1177096e-06"
       transform="translate(21.695877,61.644258)" />
    <path
       style="fill:none;stroke:#ff0000;stroke-width:0.293;stroke-dasharray:none;stroke-opacity:1"
       d="m 47.279083,50.683583 c -0.103661,1.525188 0.287684,1.046734 0.747723,1.890141 0.360852,0.661561 0.768586,1.767527 1.420913,2.202412 0.02787,0.01857 0.04736,0.04736 0.07105,0.07105 0.02368,0.04736 0.02868,0.110318 0.07104,0.142092 0.287655,0.215739 0.742884,0.203481 1.065684,0.284181 0.07916,0.01979 0.204856,0.126225 0.284184,0.142092 0.538027,0.107603 0.930253,-0.06883 1.563002,0.142089 0.06763,0.02254 0.228997,-0.04197 0.284183,0 0.164489,0.125103 0.310828,0.272423 0.466244,0.408633"
       id="path5" />
    <path
       style="fill:none;stroke:#0000ff;stroke-width:0.293;stroke-dasharray:none;stroke-opacity:1"
       d="m 40.05621,36.519111 c -0.113911,0.212575 -0.26325,0.409679 -0.341736,0.637723 -0.08705,0.252926 0.0367,0.541073 0.07105,0.781502 0.07296,0.510726 -0.06401,1.050952 0,1.563003 0.0093,0.07431 0.06176,0.138827 0.07105,0.213135 0.09829,0.786307 0.06867,1.803365 0.284183,2.557642 0.07565,0.264787 0.305454,0.468818 0.426273,0.710454 0.166981,0.333968 0.271182,0.724482 0.426273,1.065686 0.168712,0.371166 0.270163,0.455263 0.426273,0.923592 0.192505,0.577511 -0.03125,0.249391 0.142092,0.63941 0.473069,1.064406 1.27594,2.179365 1.42091,3.339142 0.05009,0.400717 -0.110831,1.104046 0,1.491957 0.0291,0.101833 0.112998,0.182348 0.142092,0.284181 0.08003,0.280101 0.03837,0.629526 0.07105,0.923594 0.06694,0.602467 0.06865,1.272437 0.284183,1.847183 0.02998,0.07995 0.09973,0.139002 0.14209,0.213138 0.173918,0.304356 0.326869,0.616781 0.497318,0.923592 0.140388,0.252695 0.342123,0.466576 0.497319,0.710456 0.465384,0.731316 0.97731,1.429576 1.491959,2.131367 0.12047,0.16428 0.218945,0.345895 0.355227,0.497319 0.07921,0.08801 0.200454,0.129408 0.284184,0.213138 0.06038,0.06038 0.08171,0.152759 0.142089,0.213135 0.06038,0.06038 0.142092,0.09473 0.213138,0.142091 0.118409,0.118409 0.246247,0.228087 0.355227,0.355227 0.03446,0.04021 0.0336,0.104648 0.07105,0.142092 0.385305,0.385305 1.080683,0.583364 1.420913,0.923592 0.14405,0.144052 0.204486,0.360283 0.355227,0.497321 0.11755,0.106863 0.299183,0.117819 0.426273,0.213135 0.147968,0.110977 0.213138,0.307864 0.355227,0.426273 0.0656,0.05466 0.142092,0.09473 0.213138,0.142092 0.09473,0.118409 0.176959,0.248005 0.284184,0.355227 0.558853,0.558856 -0.155676,-0.343106 0.426272,0.35523 0.05466,0.0656 0.08171,0.152759 0.142092,0.213135 0.196684,0.196683 0.498049,0.246546 0.710454,0.426275 0.243221,0.205801 0.447911,0.458909 0.710457,0.639408 0.123423,0.08485 0.299913,0.06168 0.426273,0.142092 0.141276,0.0899 0.230071,0.243978 0.355229,0.35523 0.117139,0.104121 0.32526,0.213809 0.426273,0.355226 0.08026,0.112366 0.115493,0.257586 0.213135,0.355227 0.07489,0.07489 0.209293,0.06721 0.284184,0.142092 0.154577,0.154578 0.200649,0.342741 0.355227,0.497319 0.279767,0.279768 0.02511,0.0021 0.355229,0.497319 0.08153,0.122293 0.08372,0.03424 0.213135,0.142092 0.336828,0.280688 0.90796,0.977302 1.349867,1.065683 0.137944,0.02759 0.657236,0.151006 0.7815,0.213138 0.07637,0.03818 0.15276,0.08171 0.213138,0.142089 0.01675,0.01675 0.0065,0.09383 0,0.07105 -0.06623,-0.233982 -0.119999,-0.471313 -0.179999,-0.706967"
       id="path6" />
  </g>
</svg>
